<?xml version="1.0" encoding="UTF-8"?>
<svg id="Layer_1" xmlns="http://www.w3.org/2000/svg" version="1.1" viewBox="0 0 85 85">
  <!-- Generator: Adobe Illustrator 30.1.0, SVG Export Plug-In . SVG Version: 2.1.1 Build 89)  -->
  <defs>
    <style>
      .st0 {
        fill: #c5e9ff;
      }

      .st1 {
        fill: #133e86;
      }

      .st2 {
        fill: #146ccc;
      }
    </style>
  </defs>
  <path class="st1" d="M81.4,26.26c-.58-.57-3.66,0-3.34,1.52,1.91,4.55,2.97,9.55,2.97,14.79,0,14.9-8.54,27.8-20.98,34.09.79-3.97-.17-16.89-.17-16.89,5.67-5.43,11.72-17.68,13.74-25.37.64-2.45,1-4.44,1.2-6.01.09-.49,1.49-8.45,1.06-8.45-2.4,0-6.98,7.97-8.91,7.03l-2.47,2.96s-1.1-3.41-3.99-5.19c-2.88-1.78-6.01-.05-6.01-.05-5.38-8.61-15.13-7.63-15.13-7.63,0,0,1.2-1.73,1.54-3.03s-2.11-.82-2.11-.82c-17.73,3.07-22.05,18.83-22.05,18.83-8.36-1.88-8.36,7.5-8.36,7.5.77,8.7,7.4,9.75,9.66,9.75s3.51-.77,3.51-.77c.77,2.26,3.56,5,3.56,5-9,4.83-11.61,10.8-12.23,12.64-5.11-6.49-8.17-14.69-8.17-23.59-.02-21.08,17.07-38.17,38.15-38.17,7.44,0,14.38,2.13,20.24,5.81.23.14.46.29.68.44.42.35,3.75-1.87,3.27-2.21C60.09,3.49,51.54.62,42.31.74,19.27,1.03.84,19.87,1.03,42.92c.19,22.64,18.35,40.99,40.91,41.47,23.44.51,42.54-17.98,42.75-41.43.05-5.79-1.07-11.32-3.15-16.35-.05-.12-.1-.23-.15-.35h0Z"/>
  <path class="st2" d="M43.51,74.91s-1.41,2.75-4.1.7-7.3-6.21-7.3-6.21l-7.24,7.75-6.73-4.68,11.79-11.21s1.02-2.18,3.84.58c2.67,2.6,5.51,4.42,5.51,4.42,0,0,.45.58,1.28-.51s5.38-7.62,5.38-7.62c0,0,7.81-2.63,10.25-6.92,2.43-4.29,2.24-6.85,1.92-10.38l10.83-23s.38-.58,0-.9-4.61-2.43-4.61-2.43c0,0-.83-.58-.83-1.28s1.74-1.58,1.74-1.58l14.46-5.72s.7-.38,1.28-.06.77.45.83,2.31c.06,1.85.04,14.9-.3,14.92,0,0,.04,2.12-1.31,1.48s-3.59-1.99-3.59-1.99c0,0-.51-.26-.77.26,0,0-19.54,35.17-32.35,52.08h.02Z"/>
  <path class="st0" d="M55.81,27.96s1.41-1.02,2.75-.38c1.34.64,2.5,2.18,2.5,3.91s-1.28,4.87-3.78,5.76c0,0,1.22-5.51-1.47-9.29Z"/>
  <path class="st0" d="M18.15,36.16s-5.32-3.59-6.21,3.27c0,0,0,4.1,3.97,5.89,0,0,1.86.7,4.1,0,0,0-3.91-3.97-1.86-9.16Z"/>
  <path class="st0" d="M55.17,45.19c-.06-4.1-3.07-5.25-3.07-5.25,0,0,3.2-4.62,1.41-9.36-1.79-4.74-4.36-5.7-7.75-5.89s-6.53,4.1-6.53,4.1c-9.74-6.43-14.86,1.15-15.05,6.43s4.87,8.05,4.87,8.05c-3.46,6.15,2.63,13.84,12.62,13.52s13.58-7.49,13.52-11.59h-.02ZM46.33,32.04c1.45,0,2.63,1.42,2.63,3.18s-1.18,3.18-2.63,3.18-2.63-1.42-2.63-3.18,1.18-3.18,2.63-3.18ZM43.67,40.66c.76-.76,1.73-1.03,2.16-.6s.16,1.4-.6,2.16-1.73,1.03-2.16.6-.16-1.4.6-2.16ZM38.58,41.31c.28-.54,1.28-.58,2.24-.09.96.49,1.51,1.33,1.23,1.87-.28.54-1.28.58-2.24.09-.96-.49-1.51-1.33-1.23-1.87ZM30.95,36.76c0-1.76,1.18-3.18,2.63-3.18s2.63,1.42,2.63,3.18-1.18,3.18-2.63,3.18-2.63-1.42-2.63-3.18ZM51.81,46.87s-3,4.95-10.05,4.68c-4.8-.18-7.58-2.26-8.82-3.61,0,0-.58-1.09,0-1.47s.96-.38,1.86.45,3.39,2.5,7.17,2.5,7.43-2.43,8.58-4.23c0,0,.74-.77,1.36-.12s-.11,1.8-.11,1.8h0Z"/>
</svg>