<?xml version="1.0" encoding="UTF-8"?>
<svg id="Layer_1" xmlns="http://www.w3.org/2000/svg" version="1.1" viewBox="0 0 210 88">
  <!-- Generator: Adobe Illustrator 30.1.0, SVG Export Plug-In . SVG Version: 2.1.1 Build 65)  -->
  <defs>
    <style>
      .st0 {
        fill: #c5e9ff;
      }

      .st1 {
        fill: #133e86;
      }

      .st2 {
        fill: #146ccc;
      }
    </style>
  </defs>
  <g>
    <path class="st1" d="M97.33,24.54h1.52l7.1,13.27,6.91-13.27h1.49v19.35h-1.49v-16.5l-6.16,11.78c-.13.24-.24.41-.35.5-.1.09-.22.14-.35.14h-.47l-6.72-12.41v16.5h-1.49v-19.35Z"/>
    <path class="st1" d="M119.8,42.72c-.9-.93-1.35-2.15-1.35-3.66v-4.12c0-1.51.46-2.73,1.37-3.66.91-.93,2.11-1.4,3.61-1.4h2.18c1.49,0,2.69.47,3.61,1.4.91.93,1.37,2.15,1.37,3.66v4.12c0,1.51-.46,2.73-1.38,3.66-.92.93-2.14,1.4-3.65,1.4h-2.18c-1.47,0-2.66-.47-3.57-1.4ZM125.56,42.79c1.07,0,1.93-.34,2.58-1.02.65-.68.98-1.58.98-2.71v-4.12c0-1.12-.32-2.03-.97-2.71-.65-.68-1.49-1.02-2.54-1.02h-2.18c-1.05,0-1.89.34-2.53,1.02-.64.68-.95,1.59-.95,2.71v4.12c0,1.12.31,2.03.94,2.71.63.68,1.46,1.02,2.49,1.02h2.18Z"/>
    <path class="st1" d="M134.57,30.1h1.44v2.35c.46-.79,1.05-1.42,1.76-1.88.71-.46,1.43-.69,2.17-.69h1.85c1.2,0,2.17.42,2.92,1.26.75.84,1.12,1.95,1.12,3.33v9.43h-1.47v-9.45c0-.96-.24-1.74-.72-2.34-.48-.6-1.11-.9-1.88-.9h-1.8c-.83,0-1.61.34-2.35,1.02-.74.68-1.25,1.57-1.55,2.65v9.01h-1.49v-13.79Z"/>
    <path class="st1" d="M159.39,43.89l-5.67-6.83-2.05,2.02v4.81h-1.49v-19.35h1.49v12.69l7.24-7.13h1.82l-6,5.94,6.44,7.85h-1.8Z"/>
    <path class="st1" d="M164.02,42.79c-.89-.88-1.34-2.05-1.34-3.51v-4.29c0-1.53.45-2.76,1.34-3.7.89-.94,2.07-1.41,3.52-1.41h2.27c1.4,0,2.53.46,3.39,1.37.86.91,1.29,2.12,1.29,3.64v2.32h-10.31v2.07c0,1.05.31,1.9.93,2.54.62.65,1.43.97,2.45.97h2.1c1,0,1.8-.29,2.42-.87.62-.58.93-1.34.93-2.28h1.44c0,1.35-.44,2.43-1.31,3.25-.88.82-2.03,1.23-3.47,1.23h-2.1c-1.46,0-2.63-.44-3.52-1.33ZM173.02,35.93v-1.05c0-1.11-.3-1.99-.88-2.67-.59-.67-1.36-1.01-2.32-1.01h-2.27c-1.01,0-1.83.35-2.45,1.05-.62.7-.93,1.61-.93,2.74v.94h8.85Z"/>
    <path class="st1" d="M179.68,48.61c-.74-.6-1.15-1.39-1.24-2.36h1.47c.07.59.35,1.06.82,1.42s1.05.54,1.76.54h2.18c1.01,0,1.81-.34,2.39-1.02s.87-1.61.87-2.79v-3.07c-.5.77-1.1,1.4-1.81,1.87-.71.47-1.41.7-2.09.7h-1.8c-1.22,0-2.2-.41-2.96-1.23-.76-.82-1.13-1.9-1.13-3.25v-9.32h1.49v9.34c0,.92.24,1.67.72,2.25.48.58,1.11.87,1.88.87h1.74c.81,0,1.61-.36,2.39-1.09.78-.73,1.3-1.6,1.56-2.61v-8.76h1.47v14.29c0,1.58-.42,2.83-1.27,3.75-.85.91-2,1.37-3.46,1.37h-2.18c-1.12,0-2.05-.3-2.79-.9Z"/>
    <path class="st1" d="M194.4,42.97c-.8-.76-1.2-1.77-1.2-3.03h1.44c0,.85.27,1.54.82,2.07.54.53,1.25.8,2.11.8h2.38c.9,0,1.63-.18,2.17-.55.54-.37.82-.85.82-1.44v-1.08c0-.41-.15-.76-.46-1.08-.3-.31-.7-.52-1.17-.61l-4.81-.83c-.9-.15-1.63-.49-2.17-1.04-.54-.54-.82-1.18-.82-1.92v-.94c0-1.03.38-1.87,1.15-2.5.76-.64,1.77-.95,3.03-.95h2.35c1.22,0,2.2.35,2.94,1.05.75.7,1.12,1.62,1.12,2.76h-1.44c-.04-.76-.29-1.36-.76-1.82-.47-.46-1.09-.69-1.87-.69h-2.35c-.81,0-1.47.2-1.96.59-.5.4-.75.92-.75,1.56v.88c0,.42.17.8.5,1.12.33.32.76.52,1.3.59l4.81.83c.85.15,1.53.49,2.05,1.02.52.53.77,1.17.77,1.91v1.16c0,.98-.41,1.76-1.22,2.36-.81.6-1.89.9-3.23.9h-2.38c-1.31,0-2.36-.38-3.17-1.15Z"/>
  </g>
  <g>
    <path class="st2" d="M96.64,48.14h10.13c1.65,0,2.98.45,3.99,1.33s1.51,2.06,1.51,3.51v1.91c0,.94-.27,1.77-.8,2.46-.54.7-1.31,1.23-2.33,1.59v.05c.58.38,1.02.82,1.32,1.31.3.49.59,1.17.89,2.04l1.53,4.85h-3.89l-1.44-4.52c-.24-.78-.56-1.36-.98-1.74-.42-.38-.94-.57-1.55-.57h-4.6v6.84h-3.76v-19.06ZM106.06,57.13c.76,0,1.36-.2,1.8-.61.44-.41.65-.94.65-1.59v-1.77c0-.53-.16-.95-.49-1.27-.33-.32-.76-.48-1.31-.48h-6.32v5.72h5.66Z"/>
    <path class="st2" d="M121.32,66.36c-.87-.71-1.31-1.64-1.31-2.81v-1.01c0-1.14.45-2.06,1.36-2.76.91-.7,2.11-1.05,3.6-1.05h1.66c.47,0,.98.06,1.53.19.54.13,1.04.3,1.5.52v-1.42c0-.45-.15-.82-.45-1.1s-.69-.42-1.18-.42h-2.34c-.51,0-.92.12-1.23.35s-.46.55-.46.95h-3.6c0-1.33.49-2.39,1.46-3.2.97-.81,2.25-1.21,3.83-1.21h2.34c1.6,0,2.89.42,3.87,1.27.98.84,1.47,1.97,1.47,3.36v9.18h-3.43v-1.63c-.44.56-.97,1.01-1.61,1.35-.64.34-1.26.5-1.88.5h-1.69c-1.42,0-2.56-.35-3.43-1.06ZM126.71,64.59c.67,0,1.27-.17,1.8-.52s.91-.81,1.14-1.39v-.46c-.29-.22-.69-.39-1.21-.52-.52-.13-1.07-.19-1.65-.19h-1.72c-.44,0-.79.11-1.06.33-.27.22-.41.51-.41.87v.71c0,.34.15.63.45.84.3.22.69.33,1.18.33h1.47Z"/>
    <path class="st2" d="M142.44,51.72c-.43-.41-.64-.95-.64-1.62s.21-1.21.64-1.62c.43-.41.99-.61,1.7-.61s1.28.2,1.7.61c.43.41.64.95.64,1.62s-.21,1.21-.64,1.62-.99.61-1.7.61-1.28-.2-1.7-.61ZM142.29,53.61h3.7v13.59h-3.7v-13.59Z"/>
    <path class="st2" d="M155.93,66.11c-1-.87-1.5-2.02-1.5-3.43h3.65c0,.49.17.89.5,1.18s.78.45,1.32.45h2.45c1.09,0,1.63-.3,1.63-.9v-.46c0-.18-.09-.35-.27-.5-.18-.15-.43-.26-.74-.31l-4.71-.82c-1.11-.18-1.98-.58-2.63-1.18-.64-.61-.97-1.32-.97-2.14v-.9c0-1.16.48-2.07,1.43-2.72.95-.65,2.28-.98,3.99-.98h2.12c1.53,0,2.76.4,3.69,1.21.94.81,1.4,1.88,1.4,3.2h-3.65c0-.4-.13-.72-.39-.95-.26-.24-.61-.35-1.05-.35h-2.07c-1.18,0-1.77.27-1.77.82v.44c0,.2.08.37.23.5.15.14.38.23.67.29l4.96.9c1.03.18,1.87.57,2.51,1.16.64.59.95,1.26.95,2v.98c0,1.18-.49,2.12-1.46,2.81-.97.69-2.26,1.04-3.88,1.04h-2.45c-1.65,0-2.98-.44-3.98-1.31Z"/>
    <path class="st2" d="M177.73,66.78c-.88-.43-1.57-1.03-2.06-1.8-.49-.77-.74-1.66-.74-2.66v-3.51c0-1.07.25-2.02.74-2.83.49-.82,1.18-1.45,2.06-1.91s1.89-.68,3.04-.68h2.18c1.74,0,3.14.49,4.19,1.47,1.05.98,1.58,2.29,1.58,3.92v2.89h-10.08v.65c0,.6.19,1.08.57,1.44.38.36.9.54,1.55.54h2.12c.64,0,1.15-.14,1.54-.42.39-.28.59-.65.59-1.1h3.65c0,.91-.25,1.72-.74,2.42-.49.71-1.18,1.25-2.06,1.63-.88.38-1.89.57-3.04.57h-2.07c-1.14,0-2.16-.21-3.04-.64ZM185.07,59.01v-.22c0-.71-.19-1.28-.57-1.7-.38-.43-.89-.64-1.53-.64h-2.21c-.65,0-1.18.23-1.58.68-.4.45-.6,1.05-.6,1.8v.08h6.48Z"/>
    <path class="st2" d="M196.68,53.61h3.43v1.74c.34-.53.84-.96,1.48-1.29.64-.34,1.32-.5,2.03-.5h1.85v3.21h-1.85c-.96,0-1.74.29-2.34.87-.6.58-.9,1.33-.9,2.23v7.33h-3.7v-13.59Z"/>
  </g>
  <g>
    <path class="st1" d="M85.84,27.59c-.58-.57-3.66,0-3.34,1.52,1.91,4.55,2.97,9.55,2.97,14.79,0,14.9-8.54,27.8-20.98,34.09.79-3.97-.17-16.89-.17-16.89,5.67-5.43,11.72-17.68,13.74-25.37.64-2.45,1-4.44,1.2-6.01.09-.49,1.49-8.45,1.06-8.45-2.4,0-6.98,7.97-8.91,7.03l-2.47,2.96s-1.1-3.41-3.99-5.19c-2.88-1.78-6.01-.05-6.01-.05-5.38-8.61-15.13-7.63-15.13-7.63,0,0,1.2-1.73,1.54-3.03.34-1.3-2.11-.82-2.11-.82-17.73,3.07-22.05,18.83-22.05,18.83-8.36-1.88-8.36,7.5-8.36,7.5.77,8.7,7.4,9.75,9.66,9.75s3.51-.77,3.51-.77c.77,2.26,3.56,5,3.56,5-9,4.83-11.61,10.8-12.23,12.64-5.11-6.49-8.17-14.69-8.17-23.59C9.14,22.82,26.23,5.73,47.31,5.73c7.44,0,14.38,2.13,20.24,5.81.23.14.46.29.68.44.42.35,3.75-1.87,3.27-2.21-6.97-4.95-15.52-7.82-24.75-7.7C23.71,2.36,5.28,21.2,5.47,44.25c.19,22.64,18.35,40.99,40.91,41.47,23.44.51,42.54-17.98,42.75-41.43.05-5.79-1.07-11.32-3.15-16.35-.05-.12-.1-.23-.15-.35Z"/>
    <path class="st2" d="M47.95,76.24s-1.41,2.75-4.1.7-7.3-6.21-7.3-6.21l-7.24,7.75-6.73-4.68,11.79-11.21s1.02-2.18,3.84.58c2.67,2.6,5.51,4.42,5.51,4.42,0,0,.45.58,1.28-.51s5.38-7.62,5.38-7.62c0,0,7.81-2.63,10.25-6.92,2.43-4.29,2.24-6.85,1.92-10.38l10.83-23s.38-.58,0-.9-4.61-2.43-4.61-2.43c0,0-.83-.58-.83-1.28s1.74-1.58,1.74-1.58l14.46-5.72s.7-.38,1.28-.06.77.45.83,2.31c.06,1.85.04,14.9-.3,14.92,0,0,.04,2.12-1.31,1.48s-3.59-1.99-3.59-1.99c0,0-.51-.26-.77.26,0,0-19.54,35.17-32.35,52.08Z"/>
    <path class="st0" d="M60.25,29.29s1.41-1.02,2.75-.38,2.5,2.18,2.5,3.91-1.28,4.87-3.78,5.76c0,0,1.22-5.51-1.47-9.29Z"/>
    <path class="st0" d="M22.59,37.49s-5.32-3.59-6.21,3.27c0,0,0,4.1,3.97,5.89,0,0,1.86.7,4.1,0,0,0-3.91-3.97-1.86-9.16Z"/>
    <path class="st0" d="M59.61,46.52c-.06-4.1-3.07-5.25-3.07-5.25,0,0,3.2-4.62,1.41-9.36-1.79-4.74-4.36-5.7-7.75-5.89s-6.53,4.1-6.53,4.1c-9.74-6.43-14.86,1.15-15.05,6.43s4.87,8.05,4.87,8.05c-3.46,6.15,2.63,13.84,12.62,13.52,9.99-.32,13.58-7.49,13.52-11.59ZM50.77,33.37c1.45,0,2.63,1.42,2.63,3.18s-1.18,3.18-2.63,3.18-2.63-1.42-2.63-3.18,1.18-3.18,2.63-3.18ZM48.11,41.99c.76-.76,1.73-1.03,2.16-.6s.16,1.4-.6,2.16-1.73,1.03-2.16.6c-.43-.43-.16-1.4.6-2.16ZM43.02,42.64c.28-.54,1.28-.58,2.24-.09.96.49,1.51,1.33,1.23,1.87-.28.54-1.28.58-2.24.09-.96-.49-1.51-1.33-1.23-1.87ZM35.39,38.09c0-1.76,1.18-3.18,2.63-3.18s2.63,1.42,2.63,3.18-1.18,3.18-2.63,3.18-2.63-1.42-2.63-3.18ZM56.25,48.2s-3,4.95-10.05,4.68c-4.8-.18-7.58-2.26-8.82-3.61,0,0-.58-1.09,0-1.47.58-.38.96-.38,1.86.45.9.83,3.39,2.5,7.17,2.5s7.43-2.43,8.58-4.23c0,0,.74-.77,1.36-.12s-.11,1.8-.11,1.8Z"/>
  </g>
</svg>